#!OML:ASF E:\Style4\Style4.ASF
:FULLY-SPECIFIED
:DEGREES
1560
root -0.185719 17.9763 -1.88942 1.00609 -0.706589 1.39132
lowerback 5.61428 2.75134 2.21486
upperback 1.84506 3.76189 -1.40936
thorax -1.00412 1.8881 -2.92249
lowerneck -2.74341 -6.25392 -4.61729
upperneck 13.9435 -8.76555 4.9396
head 5.06017 -4.24149 1.80362
rclavicle 1.60884e-014 7.42958e-015
rhumerus 58.8726 71.0585 -43.5149
rradius 89.5644
rwrist 14.7124
rhand -10.2595 21.4232
rfingers 7.12502
rthumb 15.7338 -7.95725
lclavicle 1.60884e-014 7.42958e-015
lhumerus 48.7863 -72.9053 46.359
lradius 72.9947
lwrist -34.8369
lhand -29.9831 30.1639
lfingers 7.12502
lthumb -3.30115 60.1181
rfemur -10.2681 1.66326 17.5572
rtibia 25.9472
rfoot -15.4185 -15.3796
rtoes -13.5123
lfemur -8.26781 -3.90291 -19.9152
ltibia 23.9297
lfoot -16.6299 10.3577
ltoes -15.5154
1561
root -0.189302 17.9735 -1.89515 1.00461 -0.649181 1.32883
lowerback 5.65284 2.74055 2.30728
upperback 1.89265 3.75323 -1.40276
thorax -0.971533 1.88509 -2.96736
lowerneck -2.68514 -6.23785 -4.59914
upperneck 13.7771 -8.74064 4.9508
head 4.9974 -4.2305 1.80983
rclavicle 7.1644e-014 -2.81405e-015
rhumerus 58.2888 71.1639 -44.049
rradius 89.5222
rwrist 14.7599
rhand -10.2014 21.3143
rfingers 7.12502
rthumb 15.7897 -8.06173
lclavicle 7.1644e-014 -2.81405e-015
lhumerus 48.6426 -72.9987 46.5118
lradius 72.9728
lwrist -34.591
lhand -29.992 29.98
lfingers 7.12502
lthumb -3.3097 59.9341
rfemur -10.3133 1.64345 17.639
rtibia 26.0126
rfoot -15.4181 -15.3745
rtoes -13.4647
lfemur -8.36922 -3.89446 -19.8276
ltibia 24.0492
lfoot -16.5401 10.363
ltoes -16.0503
1562
root -0.192296 17.9705 -1.89981 0.984911 -0.60925 1.36175
lowerback 5.71934 2.73244 2.28795
upperback 1.95074 3.74212 -1.41984
thorax -0.949543 1.88063 -2.97531
lowerneck -2.77547 -6.23294 -4.59622
upperneck 13.7518 -8.73436 4.98341
head 5.00581 -4.22409 1.81697
rclavicle 3.75377e-014 -2.00524e-014
rhumerus 57.8435 71.2194 -44.4604
rradius 89.4379
rwrist 14.8401
rhand -10.0967 21.3447
rfingers 7.12502
rthumb 15.8905 -8.02332
lclavicle 3.75377e-014 -2.00524e-014
lhumerus 48.5795 -73.1272 46.5658
lradius 72.8766
lwrist -34.1499
lhand -30.1697 29.6315
lfingers 7.12502
lthumb -3.48132 59.5828
rfemur -10.346 1.62697 17.615
rtibia 26.0905
rfoot -15.4555 -15.4198
rtoes -13.4135
lfemur -8.44065 -3.93443 -19.8483
ltibia 24.1778
lfoot -16.5786 10.2745
ltoes -15.472
1563
root -0.192689 17.967 -1.90263 0.985378 -0.601851 1.36141
lowerback 5.74955 2.71438 2.34009
upperback 2.0352 3.7211 -1.43455
thorax -0.876388 1.87263 -3.01718
lowerneck -2.9995 -6.2161 -4.64561
upperneck 13.7845 -8.71154 5.05395
head 5.05777 -4.20706 1.83983
rclavicle 4.41892e-014 -1.46542e-014
rhumerus 57.9642 71.0991 -44.3176
rradius 89.3713
rwrist 14.8365
rhand -10.1001 21.4596
rfingers 7.12502
rthumb 15.8872 -7.90869
lclavicle 4.41892e-014 -1.46542e-014
lhumerus 48.7476 -73.2372 46.3531
lradius 72.7973
lwrist -33.658
lhand -30.2402 29.5006
lfingers 7.12502
lthumb -3.54946 59.4508
rfemur -10.4118 1.60264 17.6187
rtibia 26.2025
rfoot -15.4874 -15.476
rtoes -13.5991
lfemur -8.51335 -3.95957 -19.8437
ltibia 24.3035
lfoot -16.7405 10.2442
ltoes -14.997
1564
root -0.193524 17.9639 -1.9043 0.966382 -0.604783 1.3614
lowerback 5.78403 2.68845 2.36735
upperback 2.1081 3.68858 -1.42735
thorax -0.821437 1.85829 -3.02263
lowerneck -3.14764 -6.17315 -4.71663
upperneck 13.7697 -8.64756 5.09395
head 5.07976 -4.17458 1.86267
rclavicle 1.03896e-015 1.36727e-014
rhumerus 58.171 71.0743 -44.0839
rradius 89.3128
rwrist 14.839
rhand -9.96516 21.6109
rfingers 7.12502
rthumb 16.0172 -7.74702
lclavicle 1.03896e-015 1.36727e-014
lhumerus 49.0818 -73.455 45.9367
lradius 72.7656
lwrist -33.102
lhand -30.2769 30.1497
lfingers 7.12502
lthumb -3.58486 60.0993
rfemur -10.4894 1.53229 17.6177
rtibia 26.3815
rfoot -15.5848 -15.4021
rtoes -13.6444
lfemur -8.54145 -3.95365 -19.8403
ltibia 24.3766
lfoot -16.8033 10.2437
ltoes -15.2979
1565
root -0.194291 17.9614 -1.90675 0.95772 -0.575095 1.36209
lowerback 5.81116 2.67425 2.40273
upperback 2.12374 3.67195 -1.44015
thorax -0.818411 1.85044 -3.05564
lowerneck -3.03522 -6.1405 -4.65801
upperneck 13.6365 -8.60376 5.08285
head 5.01429 -4.15432 1.85819
rclavicle 5.26818e-014 -2.96438e-014
rhumerus 57.8981 71.1564 -44.2732
rradius 89.2735
rwrist 14.8997
rhand -9.82468 21.6578
rfingers 7.12502
rthumb 16.1525 -7.68914
lclavicle 5.26818e-014 -2.96438e-014
lhumerus 49.1979 -73.7858 45.7097
lradius 72.7248
lwrist -32.4363
lhand -30.5092 30.6219
lfingers 7.12502
lthumb -3.80924 60.5676
rfemur -10.5496 1.47437 17.6099
rtibia 26.5664
rfoot -15.8396 -15.1702
rtoes -12.2772
lfemur -8.58411 -3.92887 -19.837
ltibia 24.4351
lfoot -16.7675 10.2308
ltoes -15.6899
1566
root -0.196934 17.9606 -1.90925 0.957592 -0.560478 1.45782
lowerback 5.83002 2.70081 2.31836
upperback 2.10327 3.70234 -1.49349
thorax -0.849719 1.86478 -3.06689
lowerneck -2.82902 -6.1558 -4.57574
upperneck 13.5213 -8.63037 5.07152
head 4.94128 -4.16874 1.84833
rclavicle 6.38002e-014 -2.34338e-014
rhumerus 57.3006 71.2321 -44.7216
rradius 89.2643
rwrist 14.8776
rhand -9.97474 21.6854
rfingers 7.12502
rthumb 16.008 -7.67318
lclavicle 6.38002e-014 -2.34338e-014
lhumerus 48.7359 -74.0431 46.118
lradius 72.5329
lwrist -32.0189
lhand -30.7245 30.3874
lfingers 7.12502
lthumb -4.01713 60.3293
rfemur -10.5822 1.40769 17.5129
rtibia 26.7129
rfoot -16.0071 -14.9433
rtoes -11.1054
lfemur -8.6363 -3.8965 -19.9293
ltibia 24.5002
lfoot -16.7417 10.1706
ltoes -15.581
1567
root -0.198867 17.9597 -1.91263 0.948445 -0.553293 1.48969
lowerback 5.87279 2.70973 2.30806
upperback 2.10684 3.71398 -1.52177
thorax -0.867744 1.87044 -3.09323
lowerneck -2.75512 -6.16166 -4.51978
upperneck 13.4627 -8.6385 5.04594
head 4.90765 -4.17334 1.83434
rclavicle -1.85794e-014 4.58758e-015
rhumerus 57.1588 71.2849 -44.7636
rradius 89.2504
rwrist 14.7942
rhand -10.0504 21.5849
rfingers 7.12502
rthumb 15.9352 -7.77951
lclavicle -1.85794e-014 4.58758e-015
lhumerus 47.877 -74.1395 46.9751
lradius 72.2823
lwrist -31.8376
lhand -30.787 29.9828
lfingers 7.12502
lthumb -4.07745 59.9235
rfemur -10.6402 1.35881 17.4851
rtibia 26.8122
rfoot -15.9923 -14.9747
rtoes -11.378
lfemur -8.68042 -3.90295 -19.9535
ltibia 24.5748
lfoot -16.7514 10.1251
ltoes -15.4537
1568
root -0.20067 17.9558 -1.91681 0.947877 -0.550091 1.49004
lowerback 5.91805 2.67119 2.28132
upperback 2.1367 3.66204 -1.50358
thorax -0.868703 1.84459 -3.05816
lowerneck -2.80224 -6.10911 -4.44911
upperneck 13.4239 -8.55574 4.94508
head 4.89214 -4.13473 1.79632
rclavicle -3.91042e-014 -1.6291e-015
rhumerus 57.6684 71.3715 -44.2417
rradius 89.1894
rwrist 14.6159
rhand -10.0706 21.4976
rfingers 7.12502
rthumb 15.9156 -7.86841
lclavicle -3.91042e-014 -1.6291e-015
lhumerus 47.589 -74.2712 47.1695
lradius 72.1627
lwrist -31.3286
lhand -30.849 30.2326
lfingers 7.12502
lthumb -4.13734 60.1722
rfemur -10.7505 1.36456 17.4916
rtibia 26.8778
rfoot -15.8826 -15.1872
rtoes -12.6363
lfemur -8.73956 -3.89414 -19.9486
ltibia 24.658
lfoot -16.7068 10.1353
ltoes -15.7335
1569
root -0.201212 17.9526 -1.91844 0.984862 -0.558929 1.4579
lowerback 5.88799 2.64758 2.32917
upperback 2.18119 3.63268 -1.50877
thorax -0.804805 1.83179 -3.08536
lowerneck -2.81273 -6.07452 -4.38098
upperneck 13.2687 -8.50558 4.9374
head 4.84042 -4.10893 1.78783
rclavicle -2.68049e-014 1.27502e-014
rhumerus 57.987 71.3613 -43.9049
rradius 89.1373
rwrist 14.316
rhand -9.9459 21.6175
rfingers 7.12502
rthumb 16.0357 -7.73891
lclavicle -2.68049e-014 1.27502e-014
lhumerus 48.0071 -74.4619 46.6259
lradius 72.0202
lwrist -30.4797
lhand -31.1079 29.89
lfingers 7.12502
lthumb -4.38734 59.8246
rfemur -10.8528 1.34867 17.5193
rtibia 26.912
rfoot -15.8359 -15.2085
rtoes -13.2585
lfemur -8.85061 -3.85269 -19.9036
ltibia 24.7806
lfoot -16.7902 10.0761
ltoes -15.4989
1570
root -0.201311 17.9492 -1.91981 1.01242 -0.587566 1.42579
lowerback 5.86214 2.62197 2.36364
upperback 2.21255 3.60019 -1.4936
thorax -0.759233 1.81679 -3.08469
lowerneck -2.8033 -6.04487 -4.41646
upperneck 13.1687 -8.46293 4.96956
head 4.80881 -4.08928 1.80744
rclavicle -4.35474e-014 -4.27232e-015
rhumerus 58.2162 71.4424 -43.5439
rradius 89.1944
rwrist 14.0375
rhand -9.90415 21.6071
rfingers 7.12502
rthumb 16.0759 -7.74607
lclavicle -4.35474e-014 -4.27232e-015
lhumerus 47.9918 -74.5633 46.5892
lradius 71.6819
lwrist -29.6713
lhand -31.4217 28.8625
lfingers 7.12502
lthumb -4.69032 58.7906
rfemur -10.9335 1.31068 17.5516
rtibia 26.974
rfoot -15.8253 -15.1621
rtoes -13.4993
lfemur -8.95925 -3.80181 -19.8618
ltibia 24.9169
lfoot -16.8674 10.0767
ltoes -15.4285
1571
root -0.201816 17.9466 -1.92089 1.05935 -0.644805 1.42436
lowerback 5.82245 2.60152 2.3252
upperback 2.20828 3.5704 -1.46879
thorax -0.747725 1.80168 -3.03394
lowerneck -2.69588 -6.00318 -4.49961
upperneck 13.0455 -8.40765 5.04024
head 4.75661 -4.06548 1.85063
rclavicle -7.54993e-015 3.19608e-015
rhumerus 58.4068 71.5543 -43.242
rradius 89.2119
rwrist 13.7452
rhand -9.89218 21.5921
rfingers 7.12502
rthumb 16.0875 -7.76008
lclavicle -7.54993e-015 3.19608e-015
lhumerus 47.7694 -74.7895 46.7011
lradius 71.4576
lwrist -28.9402
lhand -31.5064 28.7722
lfingers 7.12502
lthumb -4.77216 58.6985
rfemur -11.0656 1.28951 17.5482
rtibia 27.0909
rfoot -15.8538 -15.0851
rtoes -13.4233
lfemur -9.07413 -3.74463 -19.8506
ltibia 25.0338
lfoot -16.9629 10.0323
ltoes -15.2914
1572
root -0.201998 17.9424 -1.92305 1.05944 -0.672078 1.4877
lowerback 5.83196 2.5816 2.23483
upperback 2.22216 3.53884 -1.48213
thorax -0.745678 1.78572 -2.99547
lowerneck -2.65668 -5.98362 -4.43275
upperneck 12.9893 -8.37642 4.97652
head 4.72572 -4.05183 1.82442
rclavicle -3.33764e-014 3.47873e-015
rhumerus 58.4872 71.6379 -43.0766
rradius 89.1732
rwrist 13.5871
rhand -10.0941 21.7468
rfingers 7.12502
rthumb 15.893 -7.62101
lclavicle -3.33764e-014 3.47873e-015
lhumerus 47.6885 -75.0523 46.6159
lradius 71.3312
lwrist -28.2253
lhand -31.4272 28.9615
lfingers 7.12502
lthumb -4.69562 58.8895
rfemur -11.1546 1.23005 17.4761
rtibia 27.2338
rfoot -15.9139 -15.0198
rtoes -13.2933
lfemur -9.13229 -3.71861 -19.9247
ltibia 25.1426
lfoot -16.9699 10.0438
ltoes -15.6357
1573
root -0.201583 17.9402 -1.92458 1.04946 -0.71084 1.5519
lowerback 5.85706 2.57417 2.16284
upperback 2.24739 3.52513 -1.49681
thorax -0.738095 1.779 -2.97011
lowerneck -2.62662 -5.97894 -4.39685
upperneck 12.9233 -8.36673 4.94619
head 4.69721 -4.04827 1.81183
rclavicle -3.05736e-014 -5.75544e-015
rhumerus 58.5474 71.6871 -42.9457
rradius 89.1363
rwrist 13.5443
rhand -10.3743 21.8529
rfingers 7.12502
rthumb 15.6232 -7.53626
lclavicle -3.05736e-014 -5.75544e-015
lhumerus 47.1407 -75.1167 47.0896
lradius 71.1126
lwrist -27.8605
lhand -31.3513 28.6706
lfingers 7.12502
lthumb -4.62234 58.6002
rfemur -11.2359 1.20194 17.4035
rtibia 27.3877
rfoot -15.9938 -14.9901
rtoes -13.3282
lfemur -9.18318 -3.69059 -20.0022
ltibia 25.2572
lfoot -16.9458 10.1272
ltoes -16.3054
1574
root -0.202876 17.9369 -1.92904 1.01124 -0.68706 1.51989
lowerback 5.94846 2.55102 2.18267
upperback 2.27623 3.49694 -1.47871
thorax -0.760983 1.76486 -2.96497
lowerneck -2.54791 -5.98622 -4.34815
upperneck 12.7742 -8.36744 4.88089
head 4.63363 -4.05276 1.78856
rclavicle -3.17978e-015 5.60945e-015
rhumerus 58.6531 71.6874 -42.7185
rradius 89.169
rwrist 13.4346
rhand -10.5616 21.7806
rfingers 7.12502
rthumb 15.4428 -7.62252
lclavicle -3.17978e-015 5.60945e-015
lhumerus 46.7354 -75.1435 47.4281
lradius 70.6519
lwrist -28.0289
lhand -31.5595 28.4989
lfingers 7.12502
lthumb -4.82338 58.424
rfemur -11.3034 1.17633 17.4464
rtibia 27.5736
rfoot -16.0996 -14.9924
rtoes -13.402
lfemur -9.20932 -3.68679 -19.9592
ltibia 25.3612
lfoot -16.9792 10.1143
ltoes -16.2723
